<?xml version="1.0" encoding="UTF-8"?>
<svg version="1.1" xmlns="http://www.w3.org/2000/svg" width="262" height="219">
<path d="M0 0 C1.17989502 0.00902344 2.35979004 0.01804688 3.57543945 0.02734375 C22.96140646 0.41051296 41.33505428 7.40274382 56.6875 19.4375 C56.6875 20.0975 56.6875 20.7575 56.6875 21.4375 C57.450625 21.685 58.21375 21.9325 59 22.1875 C61.94830945 23.55880672 63.04584532 24.6726079 64.6875 27.4375 C64.6875 28.0975 64.6875 28.7575 64.6875 29.4375 C65.3475 29.4375 66.0075 29.4375 66.6875 29.4375 C72.81591607 35.42339477 76.14480928 42.75615189 79.6875 50.4375 C80.42226563 52.0153125 80.42226563 52.0153125 81.171875 53.625 C89.68039314 72.84424098 89.67517299 95.05437903 82.21923828 114.54052734 C79.36414681 121.60023401 75.87248372 128.6213236 70.97265625 134.4921875 C68.06798773 138.88891979 70.44704562 145.21144687 71.3984375 150.0625 C72.68727549 156.29165181 72.68727549 156.29165181 74.2578125 162.453125 C75.4112184 167.77976316 75.99695249 174.49802367 73.74609375 179.55078125 C70.6108016 183.51166757 67.39768491 184.98246895 62.5703125 185.79296875 C54.52032255 186.47451742 49.18307969 182.80570643 42.6875 178.4375 C41.635625 177.73625 40.58375 177.035 39.5 176.3125 C38.1078125 175.384375 38.1078125 175.384375 36.6875 174.4375 C34.31815665 173.12917572 31.93840688 171.84584968 29.54296875 170.5859375 C27.6875 169.4375 27.6875 169.4375 26.6875 167.4375 C22.77067985 166.22048802 19.67770773 166.58428709 15.6875 167.3125 C6.97130939 168.76684735 -1.56556893 170.13394743 -10.3125 168.4375 C-13.8125 167.77083333 -13.8125 167.77083333 -17.3125 168.4375 C-19.69058532 170.50999025 -21.4355788 172.91875805 -23.3125 175.4375 C-24.859375 177.16796875 -24.859375 177.16796875 -26.3125 178.4375 C-26.9725 178.4375 -27.6325 178.4375 -28.3125 178.4375 C-28.9725 179.7575 -29.6325 181.0775 -30.3125 182.4375 C-30.9725 182.4375 -31.6325 182.4375 -32.3125 182.4375 C-32.910625 183.03691406 -33.50875 183.63632813 -34.125 184.25390625 C-47.06252296 197.16832649 -69.84320121 201.63223152 -87.4375 201.625 C-88.26282227 201.62854492 -89.08814453 201.63208984 -89.93847656 201.63574219 C-95.1304874 201.60559114 -99.95591473 201.11149669 -105.0625 200.1875 C-109.28425256 199.46743473 -111.81349924 199.11533972 -115.5625 201.3125 C-116.47 202.01375 -117.3775 202.715 -118.3125 203.4375 C-118.9725 203.4375 -119.6325 203.4375 -120.3125 203.4375 C-120.6425 204.0975 -120.9725 204.7575 -121.3125 205.4375 C-124.71087532 208.52693211 -128.2240054 210.47219561 -132.32421875 212.42578125 C-134.58597804 213.52599784 -134.58597804 213.52599784 -137.5625 215.625 C-142.12769032 218.63387544 -146.87136535 219.34097199 -152.3125 218.4375 C-156.84393424 216.27068323 -160.44572949 213.15933129 -162.3125 208.4375 C-163.2646212 199.70972235 -160.57682363 190.77317933 -158.1640625 182.43359375 C-156.68654802 176.92625308 -155.50952971 172.42833543 -157.73046875 166.921875 C-159.7968076 163.64984876 -162.02451154 160.55711546 -164.3125 157.4375 C-174.87230151 138.46795967 -176.3890727 116.77756284 -171.49609375 95.96484375 C-168.54852449 85.61751902 -163.8399154 75.06977037 -157.3125 66.4375 C-156.3225 65.9425 -156.3225 65.9425 -155.3125 65.4375 C-154.9825 64.4475 -154.6525 63.4575 -154.3125 62.4375 C-153.6525 62.4375 -152.9925 62.4375 -152.3125 62.4375 C-151.9825 61.4475 -151.6525 60.4575 -151.3125 59.4375 C-137.1399277 44.07060981 -115.09613015 33.75709556 -94.3125 32.4375 C-85.25790711 32.18911965 -76.3280086 32.59884804 -67.3125 33.4375 C-67.0340625 32.84453125 -66.755625 32.2515625 -66.46875 31.640625 C-64.79706864 28.4553943 -62.73439236 26.10158159 -60.3125 23.4375 C-59.6525 23.4375 -58.9925 23.4375 -58.3125 23.4375 C-57.8175 21.9525 -57.8175 21.9525 -57.3125 20.4375 C-56.3225 20.4375 -55.3325 20.4375 -54.3125 20.4375 C-54.3125 19.7775 -54.3125 19.1175 -54.3125 18.4375 C-51.9275195 16.72745687 -49.5582641 15.15871762 -47.0625 13.625 C-45.96748169 12.95005493 -45.96748169 12.95005493 -44.8503418 12.26147461 C-30.76914852 3.75045657 -16.46560199 -0.15214012 0 0 Z " fill="#69E083" transform="translate(174.3125,-0.4375)"/>
<path d="M0 0 C-1.39751145 3.66680385 -3.05134596 7.08999813 -4.875 10.5625 C-10.06587472 20.84271644 -12.93885799 30.8722474 -13.5625 42.3125 C-13.60568359 43.05306641 -13.64886719 43.79363281 -13.69335938 44.55664062 C-13.79870432 46.37091464 -13.89978316 48.1854355 -14 50 C-12.68 50 -11.36 50 -10 50 C-10 52.64 -10 55.28 -10 58 C-10.99 58 -11.98 58 -13 58 C-12.01 62.95 -12.01 62.95 -11 68 C-9.35 68.33 -7.7 68.66 -6 69 C-6.05800781 69.68964844 -6.11601563 70.37929687 -6.17578125 71.08984375 C-6.47675639 77.35872598 -5.92100365 81.92745533 -2.578125 87.31640625 C-0.91936854 89.37801152 -0.91936854 89.37801152 2.8125 90.0625 C3.864375 90.041875 4.91625 90.02125 6 90 C5.690625 91.670625 5.690625 91.670625 5.375 93.375 C5.38298436 97.886163 7.23494723 99.88771018 10.3125 103.0625 C21.37145821 113.20505578 34.72521928 119.64498215 49 124 C47.57626357 128.5360905 45.0713452 131.4713319 41.75 134.75 C41.22132324 135.27223145 40.69264648 135.79446289 40.14794922 136.33251953 C30.6311318 145.42673799 19.35252349 151.55480124 7 156 C6.05769531 156.3403125 5.11539063 156.680625 4.14453125 157.03125 C-3.57299593 159.28089355 -11.25868184 159.27355595 -19.25 159.3125 C-20.9201416 159.32095947 -20.9201416 159.32095947 -22.62402344 159.32958984 C-28.39301603 159.27871233 -33.54950057 158.765414 -39.14160156 157.38574219 C-44.81366352 156.20840931 -48.96992169 159.61032637 -53.5 162.5625 C-54.20125 163.00706543 -54.9025 163.45163086 -55.625 163.90966797 C-58.99578591 166.04770496 -62.33911171 168.22115207 -65.65625 170.44140625 C-74.92474197 176.49407799 -74.92474197 176.49407799 -79.4375 176.75 C-83.51512364 175.89155292 -85.84121713 174.70752817 -89 172 C-92.39822054 166.60789315 -90.59439161 160.74741951 -89.31494141 154.83349609 C-88.22341756 150.27509416 -87.08258728 145.7310986 -85.90820312 141.19335938 C-85.49924805 139.52563477 -85.49924805 139.52563477 -85.08203125 137.82421875 C-84.82655518 136.82479248 -84.5710791 135.82536621 -84.30786133 134.7956543 C-83.74057684 129.6442073 -86.32107227 126.34146071 -89.3125 122.375 C-101.35017525 105.41736204 -104.60978188 84.88810009 -101.63818359 64.52001953 C-100.74493904 59.90873149 -99.42579041 55.47583291 -98 51 C-97.76152344 50.04996094 -97.52304688 49.09992188 -97.27734375 48.12109375 C-95.70840345 41.96746562 -93.03051758 36.92868306 -89 32 C-88.01 31.505 -88.01 31.505 -87 31 C-86.67 30.01 -86.34 29.02 -86 28 C-85.34 28 -84.68 28 -84 28 C-83.67 27.01 -83.34 26.02 -83 25 C-62.08421474 2.32164857 -29.56023915 -6.0636388 0 0 Z " fill="#FEFCFE" transform="translate(106,34)"/>
<path d="M0 0 C1.17989502 0.00902344 2.35979004 0.01804688 3.57543945 0.02734375 C22.96140646 0.41051296 41.33505428 7.40274382 56.6875 19.4375 C56.6875 20.0975 56.6875 20.7575 56.6875 21.4375 C57.450625 21.685 58.21375 21.9325 59 22.1875 C61.94830945 23.55880672 63.04584532 24.6726079 64.6875 27.4375 C64.6875 28.0975 64.6875 28.7575 64.6875 29.4375 C65.3475 29.4375 66.0075 29.4375 66.6875 29.4375 C72.81591607 35.42339477 76.14480928 42.75615189 79.6875 50.4375 C80.42226563 52.0153125 80.42226563 52.0153125 81.171875 53.625 C89.68039314 72.84424098 89.67517299 95.05437903 82.21923828 114.54052734 C79.36414681 121.60023401 75.87248372 128.6213236 70.97265625 134.4921875 C68.06798773 138.88891979 70.44704562 145.21144687 71.3984375 150.0625 C72.68727549 156.29165181 72.68727549 156.29165181 74.2578125 162.453125 C75.4112184 167.77976316 75.99695249 174.49802367 73.74609375 179.55078125 C70.6108016 183.51166757 67.39768491 184.98246895 62.5703125 185.79296875 C54.52032255 186.47451742 49.18307969 182.80570643 42.6875 178.4375 C41.635625 177.73625 40.58375 177.035 39.5 176.3125 C38.1078125 175.384375 38.1078125 175.384375 36.6875 174.4375 C34.31815665 173.12917572 31.93840688 171.84584968 29.54296875 170.5859375 C27.6875 169.4375 27.6875 169.4375 26.6875 167.4375 C22.77067985 166.22048802 19.67770773 166.58428709 15.6875 167.3125 C6.97130939 168.76684735 -1.56556893 170.13394743 -10.3125 168.4375 C-13.8125 167.77083333 -13.8125 167.77083333 -17.3125 168.4375 C-19.69058532 170.50999025 -21.4355788 172.91875805 -23.3125 175.4375 C-24.859375 177.16796875 -24.859375 177.16796875 -26.3125 178.4375 C-26.9725 178.4375 -27.6325 178.4375 -28.3125 178.4375 C-28.9725 179.7575 -29.6325 181.0775 -30.3125 182.4375 C-30.9725 182.4375 -31.6325 182.4375 -32.3125 182.4375 C-32.910625 183.03691406 -33.50875 183.63632813 -34.125 184.25390625 C-47.06252296 197.16832649 -69.84320121 201.63223152 -87.4375 201.625 C-88.26282227 201.62854492 -89.08814453 201.63208984 -89.93847656 201.63574219 C-95.1304874 201.60559114 -99.95591473 201.11149669 -105.0625 200.1875 C-109.28425256 199.46743473 -111.81349924 199.11533972 -115.5625 201.3125 C-116.47 202.01375 -117.3775 202.715 -118.3125 203.4375 C-118.9725 203.4375 -119.6325 203.4375 -120.3125 203.4375 C-120.6425 204.0975 -120.9725 204.7575 -121.3125 205.4375 C-124.71087532 208.52693211 -128.2240054 210.47219561 -132.32421875 212.42578125 C-134.58597804 213.52599784 -134.58597804 213.52599784 -137.5625 215.625 C-142.12769032 218.63387544 -146.87136535 219.34097199 -152.3125 218.4375 C-156.84393424 216.27068323 -160.44572949 213.15933129 -162.3125 208.4375 C-163.2646212 199.70972235 -160.57682363 190.77317933 -158.1640625 182.43359375 C-156.68654802 176.92625308 -155.50952971 172.42833543 -157.73046875 166.921875 C-159.7968076 163.64984876 -162.02451154 160.55711546 -164.3125 157.4375 C-174.85058087 138.50697844 -176.52280427 116.59402619 -171.42578125 95.82421875 C-169.63011437 89.67068838 -167.39590216 84.05369679 -164.3125 78.4375 C-163.3125 80.4375 -163.3125 80.4375 -164.2734375 83.703125 C-164.73745163 85.0338322 -165.209156 86.36187646 -165.6875 87.6875 C-172.53463089 106.83689354 -171.08801676 128.45692425 -162.47167969 146.75512695 C-159.96021788 151.90314934 -157.72297997 156.23744821 -153.5625 160.25 C-151.85062264 162.33101534 -151.27557175 163.6820805 -151.40771484 166.38525391 C-152.11957469 171.36827282 -153.36890554 176.2140537 -154.67675781 181.06933594 C-155.57783099 184.42586812 -156.36259153 187.79659756 -157.125 191.1875 C-157.50591797 192.75757813 -157.50591797 192.75757813 -157.89453125 194.359375 C-158.38429725 197.96624982 -158.07068467 200.88510664 -157.3125 204.4375 C-154.3314875 208.09164436 -152.44049812 209.31928186 -147.734375 209.8125 C-142.42437101 209.73589038 -138.88529589 207.29939865 -134.5625 204.4375 C-133.7782666 203.94217773 -132.9940332 203.44685547 -132.18603516 202.93652344 C-128.63994283 200.68104294 -125.15986604 198.35804844 -121.7578125 195.890625 C-113.36325907 189.86705231 -113.36325907 189.86705231 -108.875 190.375 C-107.699375 190.725625 -106.52375 191.07625 -105.3125 191.4375 C-83.53708785 196.5008717 -61.19439891 191.59498572 -42.3125 180.4375 C-33.29579864 174.73741572 -24.58978382 167.85415331 -19.3125 158.4375 C-19.86429932 158.33518066 -20.41609863 158.23286133 -20.98461914 158.12744141 C-26.61689822 156.9929762 -31.57664235 155.29408283 -36.75 152.8125 C-37.48790771 152.46058594 -38.22581543 152.10867187 -38.98608398 151.74609375 C-45.13039212 148.71473093 -50.27442204 145.09362981 -55.3125 140.4375 C-56.50746094 139.4475 -56.50746094 139.4475 -57.7265625 138.4375 C-63.16931639 133.64937287 -63.16931639 133.64937287 -63.58203125 130.15625 C-63.3125 127.9375 -63.3125 127.9375 -62.3125 124.4375 C-63.859375 124.746875 -63.859375 124.746875 -65.4375 125.0625 C-69.3125 124.4375 -69.3125 124.4375 -71.1484375 122.59765625 C-75.0962029 116.73161048 -75.83768903 112.43036384 -74.7421875 105.4921875 C-74.60039063 104.81414062 -74.45859375 104.13609375 -74.3125 103.4375 C-75.9625 103.4375 -77.6125 103.4375 -79.3125 103.4375 C-81.11480168 99.60760894 -81.50872241 96.65628192 -81.3125 92.4375 C-80.3225 92.4375 -79.3325 92.4375 -78.3125 92.4375 C-78.3125 89.7975 -78.3125 87.1575 -78.3125 84.4375 C-79.6325 84.4375 -80.9525 84.4375 -82.3125 84.4375 C-83.11380493 67.29847786 -79.04014791 53.13035401 -70.265625 38.3828125 C-69.09250692 36.34954127 -69.09250692 36.34954127 -69.3125 33.4375 C-68.6525 33.4375 -67.9925 33.4375 -67.3125 33.4375 C-67.085625 32.90125 -66.85875 32.365 -66.625 31.8125 C-64.85679911 28.61289839 -62.77579797 26.14712777 -60.3125 23.4375 C-59.6525 23.4375 -58.9925 23.4375 -58.3125 23.4375 C-57.8175 21.9525 -57.8175 21.9525 -57.3125 20.4375 C-56.3225 20.4375 -55.3325 20.4375 -54.3125 20.4375 C-54.3125 19.7775 -54.3125 19.1175 -54.3125 18.4375 C-51.9275195 16.72745687 -49.5582641 15.15871762 -47.0625 13.625 C-45.96748169 12.95005493 -45.96748169 12.95005493 -44.8503418 12.26147461 C-30.76914852 3.75045657 -16.46560199 -0.15214012 0 0 Z M-5.97265625 7.48828125 C-26.41262768 8.56731443 -43.93425981 19.28422244 -57.890625 33.65234375 C-65.87100768 42.82978383 -70.04864837 52.90895969 -73.3125 64.4375 C-73.48990723 65.05077148 -73.66731445 65.66404297 -73.85009766 66.29589844 C-77.08748514 81.28975429 -75.05242494 97.7953787 -68.3125 111.4375 C-67.79429688 112.51902344 -67.27609375 113.60054688 -66.7421875 114.71484375 C-57.16309555 132.69299458 -40.34327862 144.96830322 -21.1875 151.3125 C-15.61839333 152.78853965 -10.05373953 153.21114289 -4.3125 153.4375 C-3.09949219 153.49035156 -1.88648438 153.54320312 -0.63671875 153.59765625 C6.6951022 153.76990536 13.00218145 153.23068677 20.00390625 150.99609375 C24.94938982 149.96668451 28.36200616 151.07849561 32.5703125 153.66015625 C33.99093202 154.59690173 35.40475679 155.54401308 36.8125 156.5 C37.55733643 156.99081055 38.30217285 157.48162109 39.06958008 157.98730469 C42.50743407 160.26022934 45.90598832 162.57705642 49.25390625 164.98046875 C50.28386719 165.70878906 51.31382812 166.43710938 52.375 167.1875 C53.71111328 168.16976562 53.71111328 168.16976562 55.07421875 169.171875 C58.36876894 170.76744191 60.20907944 170.35421406 63.6875 169.4375 C63.14540392 159.80982501 61.02188463 150.82132313 58.68359375 141.49414062 C58.41417969 140.38361328 58.14476562 139.27308594 57.8671875 138.12890625 C57.49182861 136.63145874 57.49182861 136.63145874 57.10888672 135.10375977 C56.68648516 132.43107873 56.74713885 130.94594119 57.6875 128.4375 C59.0703125 126.5703125 59.0703125 126.5703125 60.8125 124.5625 C67.56819283 116.12483426 72.24208153 105.95279942 74.6875 95.4375 C74.87183594 94.68726562 75.05617187 93.93703125 75.24609375 93.1640625 C78.22174463 74.78349336 74.12931047 55.60442554 63.76171875 40.19921875 C50.47179926 22.5043542 33.44854278 12.10345089 11.62890625 7.83984375 C5.77344925 7.0388981 -0.0797114 7.37578744 -5.97265625 7.48828125 Z " fill="#395867" transform="translate(174.3125,-0.4375)"/>
<path d="M0 0 C-1.875 4.75 -1.875 4.75 -3 7 C-3.70382813 6.97905273 -4.40765625 6.95810547 -5.1328125 6.93652344 C-29.78969607 6.30078786 -50.82532132 9.39512362 -70 26 C-71.20269531 26.89332031 -71.20269531 26.89332031 -72.4296875 27.8046875 C-83.42964414 37.19978725 -91.85286157 53.6792718 -93 68 C-93.88368985 87.44975615 -91.53050727 104.62246487 -80 121 C-79.03203695 121.99024353 -78.05394743 122.97077009 -77.0625 123.9375 C-73.58842429 129.09597606 -75.41125214 134.93348364 -76.54321289 140.8293457 C-77.16056067 143.6249895 -77.81891437 146.40672465 -78.5 149.1875 C-80.01677772 155.45829246 -81.33585907 161.57745535 -82 168 C-76.36366054 166.67294466 -72.14425636 164.52256782 -67.3125 161.375 C-66.61624512 160.93567139 -65.91999023 160.49634277 -65.20263672 160.04370117 C-61.93718657 157.96899041 -58.74208795 155.84605402 -55.64453125 153.52734375 C-47.30815678 147.41256455 -47.30815678 147.41256455 -41.5 147.9375 C-39.36048257 148.36183762 -37.31070253 148.90798737 -35.22094727 149.52685547 C-30.39882402 150.55414742 -25.34708015 150.18476486 -20.4375 150.1875 C-19.30763672 150.19974609 -18.17777344 150.21199219 -17.01367188 150.22460938 C-6.80895546 150.2422341 2.58545186 149.17031621 11.9375 144.9375 C12.95263672 144.48395142 12.95263672 144.48395142 13.98828125 144.02124023 C23.66031455 139.50572374 36.10803685 131.7839263 41 122 C44.96 122.99 44.96 122.99 49 124 C47.57626357 128.5360905 45.0713452 131.4713319 41.75 134.75 C41.22132324 135.27223145 40.69264648 135.79446289 40.14794922 136.33251953 C30.6311318 145.42673799 19.35252349 151.55480124 7 156 C6.05769531 156.3403125 5.11539063 156.680625 4.14453125 157.03125 C-3.57299593 159.28089355 -11.25868184 159.27355595 -19.25 159.3125 C-20.9201416 159.32095947 -20.9201416 159.32095947 -22.62402344 159.32958984 C-28.39301603 159.27871233 -33.54950057 158.765414 -39.14160156 157.38574219 C-44.81366352 156.20840931 -48.96992169 159.61032637 -53.5 162.5625 C-54.20125 163.00706543 -54.9025 163.45163086 -55.625 163.90966797 C-58.99578591 166.04770496 -62.33911171 168.22115207 -65.65625 170.44140625 C-74.92474197 176.49407799 -74.92474197 176.49407799 -79.4375 176.75 C-83.51512364 175.89155292 -85.84121713 174.70752817 -89 172 C-92.39822054 166.60789315 -90.59439161 160.74741951 -89.31494141 154.83349609 C-88.22341756 150.27509416 -87.08258728 145.7310986 -85.90820312 141.19335938 C-85.49924805 139.52563477 -85.49924805 139.52563477 -85.08203125 137.82421875 C-84.82655518 136.82479248 -84.5710791 135.82536621 -84.30786133 134.7956543 C-83.74057684 129.6442073 -86.32107227 126.34146071 -89.3125 122.375 C-101.35017525 105.41736204 -104.60978188 84.88810009 -101.63818359 64.52001953 C-100.74493904 59.90873149 -99.42579041 55.47583291 -98 51 C-97.76152344 50.04996094 -97.52304688 49.09992188 -97.27734375 48.12109375 C-95.70840345 41.96746562 -93.03051758 36.92868306 -89 32 C-88.01 31.505 -88.01 31.505 -87 31 C-86.67 30.01 -86.34 29.02 -86 28 C-85.34 28 -84.68 28 -84 28 C-83.67 27.01 -83.34 26.02 -83 25 C-62.08421474 2.32164857 -29.56023915 -6.0636388 0 0 Z " fill="#B911E3" transform="translate(106,34)"/>
<path d="M0 0 C-3.03308467 2.45090491 -6.08940025 4.05963152 -9.625 5.6875 C-15.81441879 8.73703116 -20.85879364 12.42519773 -26 17 C-27.04800781 17.90685547 -27.04800781 17.90685547 -28.1171875 18.83203125 C-42.22818899 31.87235364 -49.32993206 50.71362743 -50.28515625 69.5703125 C-50.91108992 90.48711363 -43.68224174 108.26895441 -30 124 C-21.95219121 132.50895864 -11.77889075 138.58798552 -1 143 C-1 143.33 -1 143.66 -1 144 C-16.11440122 145.20380187 -31.22903679 137.85478827 -42.875 128.625 C-51.45819806 121.1618967 -57.9364193 113.22158716 -63 103 C-63.29213379 102.4131543 -63.58426758 101.82630859 -63.88525391 101.22167969 C-71.08118706 86.13048471 -71.96609118 67.05366024 -66.875 51.125 C-65.97079923 48.72886796 -65.01602099 46.35089964 -64 44 C-63.5771875 42.94039062 -63.154375 41.88078125 -62.71875 40.7890625 C-59.01181486 32.40535454 -53.43402819 26.35996743 -47 20 C-46.34128906 19.33097656 -45.68257812 18.66195313 -45.00390625 17.97265625 C-33.63766675 7.19306137 -15.87309962 -1.41724104 0 0 Z " fill="#389C9B" transform="translate(169,8)"/>
<path d="M0 0 C1 2 1 2 0.0390625 5.265625 C-0.42495163 6.5963322 -0.896656 7.92437646 -1.375 9.25 C-8.22213089 28.39939354 -6.77551676 50.01942425 1.84082031 68.31762695 C4.35228212 73.46564934 6.58952003 77.79994821 10.75 81.8125 C12.46187736 83.89351534 13.03692825 85.2445805 12.90478516 87.94775391 C12.19292531 92.93077282 10.94359446 97.7765537 9.63574219 102.63183594 C8.73466901 105.98836812 7.94990847 109.35909756 7.1875 112.75 C6.80658203 114.32007813 6.80658203 114.32007813 6.41796875 115.921875 C5.92820275 119.52874982 6.24181533 122.44760664 7 126 C9.9810125 129.65414436 11.87200188 130.88178186 16.578125 131.375 C21.88812899 131.29839038 25.42720411 128.86189865 29.75 126 C30.5342334 125.50467773 31.3184668 125.00935547 32.12646484 124.49902344 C35.67255717 122.24354294 39.15263396 119.92054844 42.5546875 117.453125 C50.94924093 111.42955231 50.94924093 111.42955231 55.4375 111.9375 C56.613125 112.288125 57.78875 112.63875 59 113 C80.77541215 118.0633717 103.11810109 113.15748572 122 102 C129.59813907 97.19668764 138.73900629 90.9404527 143.15820312 82.89013672 C145 81 145 81 148.28710938 80.57763672 C149.63967649 80.5918078 150.99212589 80.62723858 152.34375 80.6796875 C153.06808228 80.69009064 153.79241455 80.70049377 154.53869629 80.71121216 C156.85994737 80.74682162 159.17942988 80.8089871 161.5 80.875 C164.53112152 80.94872652 167.56209345 81.0080374 170.59375 81.0546875 C171.32760422 81.06894775 172.06145844 81.08320801 172.81755066 81.09790039 C177.11468522 81.1362057 180.93727611 80.73391051 185.14453125 79.7421875 C188.69619771 78.98039445 190.60417145 78.8215356 193.79296875 80.640625 C194.9471981 81.4800343 196.07851826 82.35166105 197.1875 83.25 C198.46059165 84.18194287 199.73539374 85.11155276 201.01171875 86.0390625 C201.66060059 86.52536133 202.30948242 87.01166016 202.97802734 87.51269531 C206.3944973 90.02575194 209.93202259 92.33448779 213.5 94.625 C214.14606201 95.06231445 214.79212402 95.49962891 215.45776367 95.95019531 C219.76433372 98.72200972 222.73952474 99.57666598 228 99 C230.81789177 97.74760366 232.45864906 96.75789131 234.25 94.25 C236.33833959 87.98498124 236.0457522 83.1372566 234 77 C234.99 77 235.98 77 237 77 C238.99501285 84.3566099 241.32738074 93.84514018 238.0546875 101.09375 C234.94733881 105.08053699 231.70752868 106.54541493 226.8828125 107.35546875 C218.83282255 108.03701742 213.49557969 104.36820643 207 100 C205.4221875 98.948125 205.4221875 98.948125 203.8125 97.875 C202.884375 97.25625 201.95625 96.6375 201 96 C198.63065665 94.69167572 196.25090688 93.40834968 193.85546875 92.1484375 C192 91 192 91 191 89 C187.08317985 87.78298802 183.99020773 88.14678709 180 88.875 C171.28380939 90.32934735 162.74693107 91.69644743 154 90 C150.5 89.33333333 150.5 89.33333333 147 90 C144.62191468 92.07249025 142.8769212 94.48125805 141 97 C139.453125 98.73046875 139.453125 98.73046875 138 100 C137.34 100 136.68 100 136 100 C135.01 101.98 135.01 101.98 134 104 C133.34 104 132.68 104 132 104 C131.401875 104.59941406 130.80375 105.19882813 130.1875 105.81640625 C117.24997704 118.73082649 94.46929879 123.19473152 76.875 123.1875 C76.04967773 123.19104492 75.22435547 123.19458984 74.37402344 123.19824219 C69.1820126 123.16809114 64.35658527 122.67399669 59.25 121.75 C55.02824744 121.02993473 52.49900076 120.67783972 48.75 122.875 C47.8425 123.57625 46.935 124.2775 46 125 C45.34 125 44.68 125 44 125 C43.67 125.66 43.34 126.32 43 127 C39.60162468 130.08943211 36.0884946 132.03469561 31.98828125 133.98828125 C29.72652196 135.08849784 29.72652196 135.08849784 26.75 137.1875 C22.18480968 140.19637544 17.44113465 140.90347199 12 140 C7.46856576 137.83318323 3.86677051 134.72183129 2 130 C1.0478788 121.27222235 3.73567637 112.33567933 6.1484375 103.99609375 C7.62595198 98.48875308 8.80297029 93.99083543 6.58203125 88.484375 C4.5156924 85.21234876 2.28798846 82.11961546 0 79 C-10.53808087 60.06947844 -12.21030427 38.15652619 -7.11328125 17.38671875 C-5.31761437 11.23318838 -3.08340216 5.61619679 0 0 Z " fill="#0E0E0F" transform="translate(10,78)"/>
<path d="M0 0 C13.06728138 -1.18793467 27.68096842 6.69874875 37.59765625 14.8359375 C51.05040687 26.53646307 62.16220159 43.02801723 63.8359375 61.16015625 C65.01705533 81.60474353 61.40709518 99.12413005 49 116 C48.26007813 116.65097656 47.52015625 117.30195312 46.7578125 117.97265625 C44.75017116 119.8681181 44.75017116 119.8681181 44.87109375 122.49609375 C45.15146484 123.95208984 45.15146484 123.95208984 45.4375 125.4375 C45.65019531 126.571875 45.86289063 127.70625 46.08203125 128.875 C47.36943366 134.83203973 48.81250026 140.75950188 50.32202148 146.66381836 C51.46172783 151.21456677 52.2964229 155.26503419 52 160 C50.02 160.33 48.04 160.66 46 161 C44.99293324 156.85809357 43.99642397 152.71382602 43.00927734 148.56713867 C42.67259332 147.15923133 42.33312179 145.75198736 41.99072266 144.34545898 C41.49673339 142.31405416 41.0130909 140.2804099 40.53125 138.24609375 C40.23798828 137.02591553 39.94472656 135.8057373 39.64257812 134.54858398 C38.69278513 129.30343154 38.17049947 125.47289518 40.828125 120.75390625 C41.62120346 119.67946627 42.42911283 118.61584655 43.25 117.5625 C50.92681866 107.06662843 56.44930142 95.26265749 57 82 C57.0515625 80.92492187 57.103125 79.84984375 57.15625 78.7421875 C57.67242432 58.1382292 52.23725756 39.30645872 38 24 C37.40960938 23.319375 36.81921875 22.63875 36.2109375 21.9375 C26.30863204 11.15030767 13.62860571 5.51336942 0 1 C0 0.67 0 0.34 0 0 Z " fill="#A2F88A" transform="translate(186,9)"/>
<path d="M0 0 C0 2.64 0 5.28 0 8 C-24.75 8 -49.5 8 -75 8 C-75 5.69 -75 3.38 -75 1 C-65.95949302 0.86919379 -56.91898055 0.73877495 -47.87846088 0.60884857 C-43.68044576 0.54850441 -39.48243264 0.48802758 -35.28442383 0.42724609 C-31.23199593 0.36857733 -27.17956312 0.31025897 -23.12712669 0.25218201 C-21.58220427 0.22997986 -20.03728364 0.20765215 -18.49236488 0.18519592 C-16.32605064 0.15372897 -14.15973039 0.12271127 -11.9934082 0.09179688 C-10.14474907 0.06514954 -10.14474907 0.06514954 -8.25874329 0.03796387 C-5.5053648 0.00588742 -2.75351037 -0.00765797 0 0 Z " fill="#BA0FE5" transform="translate(100,103)"/>
<path d="M0 0 C24.42 0 48.84 0 74 0 C74 2.31 74 4.62 74 7 C49.58 7 25.16 7 0 7 C0 4.69 0 2.38 0 0 Z " fill="#385868" transform="translate(138,76)"/>
<path d="M0 0 C6.435 2.97 6.435 2.97 13 6 C6.01730959 19.96538082 -9.8214926 28.01806742 -24 33 C-29.63997839 34.52650912 -35.14448685 35.31651422 -41 35 C-37.88562415 32.92374943 -34.75381623 31.42093431 -31.375 29.8125 C-23.13586086 25.78381501 -16.2597945 20.75398881 -10 14 C-9.4225 13.38125 -8.845 12.7625 -8.25 12.125 C-4.58075697 8.08883266 -2.53126333 5.06252667 0 0 Z " fill="#C5C3EE" transform="translate(134,150)"/>
<path d="M0 0 C0.66 0 1.32 0 2 0 C2.65077296 2.04009755 3.29539824 4.08215669 3.9375 6.125 C4.29714844 7.26195312 4.65679687 8.39890625 5.02734375 9.5703125 C10.82790745 30.0237058 7.87222738 50.87264782 -1.84375 69.54296875 C-3.94110164 73.19111641 -6.01793107 76.75949188 -8.6328125 80.0625 C-10.10723891 82.15197286 -10.6491432 83.76527631 -11.1875 86.25 C-11.5896875 88.10625 -11.5896875 88.10625 -12 90 C-14.2989009 85.71000084 -15.57186218 81.90719577 -15 77 C-13.55452783 74.32368637 -11.83867725 72.05993598 -9.9765625 69.65625 C1.90804838 53.68483617 5.02613371 32.89106896 2.70117188 13.50878906 C1.9874697 8.96314144 1.05087315 4.47872129 0 0 Z " fill="#141414" transform="translate(254,54)"/>
<path d="M0 0 C15.18 0 30.36 0 46 0 C46 2.64 46 5.28 46 8 C30.82 8 15.64 8 0 8 C0 5.36 0 2.72 0 0 Z " fill="#3B6069" transform="translate(138,96)"/>
<path d="M0 0 C0 2.64 0 5.28 0 8 C-15.18 8 -30.36 8 -46 8 C-46 5.69 -46 3.38 -46 1 C-40.09181144 0.85697406 -34.18360825 0.71457428 -28.27539062 0.57275391 C-26.26562085 0.52442342 -24.25585518 0.47592205 -22.24609375 0.42724609 C-19.35678147 0.35729733 -16.46745497 0.28796378 -13.578125 0.21875 C-12.68007141 0.19687622 -11.78201782 0.17500244 -10.85675049 0.15246582 C-10.01618103 0.13244507 -9.17561157 0.11242432 -8.30957031 0.09179688 C-7.20370575 0.06514954 -7.20370575 0.06514954 -6.07550049 0.03796387 C-4.05063283 0.00092615 -2.02520637 0 0 0 Z " fill="#BC12E6" transform="translate(96,84)"/>
<path d="M0 0 C15.18 0 30.36 0 46 0 C46 2.31 46 4.62 46 7 C30.82 7 15.64 7 0 7 C0 4.69 0 2.38 0 0 Z " fill="#BC0EE7" transform="translate(66,124)"/>
<path d="M0 0 C15.18 0 30.36 0 46 0 C46 2.31 46 4.62 46 7 C30.82 7 15.64 7 0 7 C0 4.69 0 2.38 0 0 Z " fill="#385868" transform="translate(138,57)"/>
<path d="M0 0 C1 2 1 2 0.0390625 5.265625 C-0.42495163 6.5963322 -0.896656 7.92437646 -1.375 9.25 C-6.55995374 23.75077722 -7.49774927 42.03465499 -2.65625 56.828125 C-2 59 -2 59 -2 63 C-2.66 63 -3.32 63 -4 63 C-4.495 63.99 -4.495 63.99 -5 65 C-12.28508289 51.09211448 -11.26003811 32.23063251 -7.1875 17.4375 C-2.32850346 2.32850346 -2.32850346 2.32850346 0 0 Z " fill="#070707" transform="translate(10,78)"/>
<path d="M0 0 C2 1 2 1 2.875 3.25 C3.04763619 7.04799622 1.36649456 8.0925924 -1 11 C-1.90603075 13.65372941 -2.43912079 16.2423439 -3 19 C-5.28476694 14.81916091 -6.38405553 10.78789233 -6 6 C-3.625 3 -3.625 3 -1 1 C-0.67 0.67 -0.34 0.34 0 0 Z " fill="#090909" transform="translate(245,125)"/>
<path d="M0 0 C2.67179249 4.77105802 4 9.53911054 4 15 C3.34 15 2.68 15 2 15 C1.67 15.66 1.34 16.32 1 17 C-1.45489316 11.87674471 -2.50341703 7.66104589 -3 2 C-2.01 1.34 -1.02 0.68 0 0 Z " fill="#0B0A0B" transform="translate(4,126)"/>
<path d="M0 0 C1 2 1 2 0.07421875 5.16015625 C-0.38178266 6.46313745 -0.84441061 7.76381235 -1.3125 9.0625 C-2.83531167 13.4124266 -4.25253442 17.65067899 -5.125 22.1875 C-5.92579588 25.67668204 -6.56224943 27.45144259 -9 30 C-8.27386296 19.28947868 -5.15999888 9.3985694 0 0 Z " fill="#181818" transform="translate(10,78)"/>
<path d="M0 0 C0.66 0.66 1.32 1.32 2 2 C1.828125 3.875 1.828125 3.875 1.25 6 C0.97929687 7.051875 0.97929687 7.051875 0.703125 8.125 C0 10 0 10 -2 12 C-2.12375 11.360625 -2.2475 10.72125 -2.375 10.0625 C-2.58125 9.381875 -2.7875 8.70125 -3 8 C-3.66 7.67 -4.32 7.34 -5 7 C-4.1875 4.0625 -4.1875 4.0625 -3 1 C-2.01 0.67 -1.02 0.34 0 0 Z " fill="#171818" transform="translate(259,96)"/>
<path d="M0 0 C0.66 0 1.32 0 2 0 C3.26977059 3.80931176 2.52074507 5.81618993 1.5625 9.6875 C1.27503906 10.86699219 0.98757812 12.04648438 0.69140625 13.26171875 C0.46324219 14.16535156 0.23507813 15.06898438 0 16 C-0.99 16 -1.98 16 -3 16 C-2.01 10.72 -1.02 5.44 0 0 Z " fill="#363636" transform="translate(17,176)"/>
<path d="M0 0 C3.04172719 -0.0271045 6.08320997 -0.04688964 9.125 -0.0625 C9.9809375 -0.07087891 10.836875 -0.07925781 11.71875 -0.08789062 C16.26678411 -0.10538306 20.52383164 0.06807642 25 1 C24.34 2.32 23.68 3.64 23 5 C22.36707031 4.51917969 21.73414062 4.03835937 21.08203125 3.54296875 C16.92820529 1.46342343 13.27294797 1.43916983 8.6875 1.3125 C7.85154297 1.27833984 7.01558594 1.24417969 6.15429688 1.20898438 C4.10332228 1.12694539 2.05168462 1.0617849 0 1 C0 0.67 0 0.34 0 0 Z " fill="#D3B1EE" transform="translate(77,40)"/>
<path d="M0 0 C2 1 2 1 2.66796875 2.890625 C4.38738561 10.6991046 4.38738561 10.6991046 3 15 C2.34 14.67 1.68 14.34 1 14 C1.020625 13.278125 1.04125 12.55625 1.0625 11.8125 C0.97671452 7.95215322 0.21818725 4.65456175 -1 1 C-0.67 0.67 -0.34 0.34 0 0 Z " fill="#050505" transform="translate(245,154)"/>
<path d="M0 0 C1.32 0.33 2.64 0.66 4 1 C3.67 3.31 3.34 5.62 3 8 C1.35 8.33 -0.3 8.66 -2 9 C-1.34 6.03 -0.68 3.06 0 0 Z " fill="#040404" transform="translate(258,88)"/>
<path d="M0 0 C0.66 0 1.32 0 2 0 C2.66 1.65 3.32 3.3 4 5 C3.401875 5.268125 2.80375 5.53625 2.1875 5.8125 C0.02775192 6.98493467 -1.35790256 8.19369282 -3 10 C-2.39009109 6.44219804 -1.4216319 3.3171411 0 0 Z " fill="#050607" transform="translate(254,104)"/>
<path d="M0 0 C2 3 2 3 1.8125 5.125 C1.544375 5.74375 1.27625 6.3625 1 7 C0.01 7.33 -0.98 7.66 -2 8 C-2.6875 5.6875 -2.6875 5.6875 -3 3 C-1.5625 1.1875 -1.5625 1.1875 0 0 Z " fill="#121212" transform="translate(8,140)"/>
<path d="M0 0 C1.32 0 2.64 0 4 0 C3.34 3.3 2.68 6.6 2 10 C0.35835645 6.7167129 -0.52087355 4.54553576 -1 1 C-0.67 0.67 -0.34 0.34 0 0 Z M1 1 C2 3 2 3 2 3 Z " fill="#101011" transform="translate(240,134)"/>
<path d="M0 0 C0.66 0 1.32 0 2 0 C2.99 3.3 3.98 6.6 5 10 C4.34 10.66 3.68 11.32 3 12 C2.01 8.04 1.02 4.08 0 0 Z " fill="#0E0E0E" transform="translate(254,54)"/>
<path d="M0 0 C2.97 0 5.94 0 9 0 C6.04816899 2.95183101 3.04488053 3.08663988 -1 4 C-0.67 2.68 -0.34 1.36 0 0 Z " fill="#353535" transform="translate(111,194)"/>
<path d="M0 0 C0.66 0 1.32 0 2 0 C1.5205537 4.21912747 0.83374881 6.79663178 -2 10 C-1.85950482 8.52031676 -1.71245174 7.04125484 -1.5625 5.5625 C-1.48128906 4.73878906 -1.40007812 3.91507812 -1.31640625 3.06640625 C-1 1 -1 1 0 0 Z " fill="#292929" transform="translate(3,98)"/>
<path d="M0 0 C0.66 0.33 1.32 0.66 2 1 C1.67 3.64 1.34 6.28 1 9 C0.34 9 -0.32 9 -1 9 C-0.67 6.03 -0.34 3.06 0 0 Z " fill="#060606" transform="translate(14,192)"/>
<path d="M0 0 C1.98 0.495 1.98 0.495 4 1 C3.67 1.99 3.34 2.98 3 4 C2.34 4 1.68 4 1 4 C1.33 5.32 1.66 6.64 2 8 C1.34 7.67 0.68 7.34 0 7 C-1.26229508 2.52459016 -1.26229508 2.52459016 0 0 Z " fill="#020202" transform="translate(10,150)"/>
</svg>
